<?xml version="1.0" encoding="UTF-8" standalone="no"?>
<svg width="87px" height="100px" viewBox="0 0 87 100" version="1.1" xmlns="http://www.w3.org/2000/svg" xmlns:xlink="http://www.w3.org/1999/xlink" xmlns:sketch="http://www.bohemiancoding.com/sketch/ns">
    <title>logo</title>
    <description>Created with Sketch (http://www.bohemiancoding.com/sketch)</description>
    <defs>
        <linearGradient x1="0%" y1="0%" x2="101.999998%" y2="100.999999%" id="linearGradient-1">
            <stop stop-color="#31DCB5" offset="0%"></stop>
            <stop stop-color="#31DC85" offset="100%"></stop>
        </linearGradient>
        <path id="path-2" d="M43.4557292,0 L86.8744575,24.8511338 L86.8744575,74.7499047 L44.453559,98.6447218 L0,74.2461414 L0.145616319,24.2556688 L43.4557292,0 Z M43.4557292,0"></path>
    </defs>
    <g id="Page-1" stroke="none" stroke-width="1" fill="none" fill-rule="evenodd" sketch:type="MSPage">
        <g id="Path-1-+-Path-2" sketch:type="MSLayerGroup" transform="translate(0.000000, 1.000000)">
            <g id="Path-1">
                <use fill="#31DCB5" sketch:type="MSShapeGroup" xlink:href="#path-2"></use>
                <use fill="url(#linearGradient-1)" xlink:href="#path-2"></use>
            </g>
            <path d="M41.536,32.288 L52.8,59.68 L52.8,40.736 C52.8,37.877319 52.2453389,36.448 51.136,36.448 C50.8373318,36.448 50.4000029,36.5226659 49.824,36.672 C49.2479971,36.8213341 48.8106682,36.896 48.512,36.896 C47.6159955,36.896 46.8586698,36.4906707 46.24,35.68 C45.6213302,34.8693293 45.312,33.8666726 45.312,32.672 C45.312,31.263993 45.7173293,30.1333376 46.528,29.28 C47.3386707,28.4266624 48.4053267,28 49.728,28 C50.4106701,28 51.5839917,28.1066656 53.248,28.32 C54.9120083,28.5333344 56.3839936,28.64 57.664,28.64 C58.8160058,28.64 60.1599923,28.5546675 61.696,28.384 C64.0000115,28.1279987 65.4293306,28 65.984,28 C67.3493402,28 68.4586624,28.4266624 69.312,29.28 C70.1653376,30.1333376 70.592,31.263993 70.592,32.672 C70.592,33.8666726 70.2506701,34.8693293 69.568,35.68 C68.8853299,36.4906707 68.0533382,36.896 67.072,36.896 C66.6879981,36.896 66.1760032,36.8213341 65.536,36.672 C64.8959968,36.5226659 64.405335,36.448 64.064,36.448 C63.2106624,36.448 62.6560013,36.981328 62.4,38.048 C62.3146662,38.4746688 62.272,39.3706598 62.272,40.736 L62.272,66.784 C62.272,69.6000141 61.1200115,71.008 58.816,71.008 C58.3893312,71.008 57.738671,70.9760003 56.864,70.912 C55.989329,70.8479997 55.3386688,70.816 54.912,70.816 C54.8693331,70.816 53.8240102,70.8586662 51.776,70.944 L50.368,70.944 C49.1306605,70.944 48.2133363,70.6453363 47.616,70.048 C47.274665,69.706665 46.7840032,68.7893408 46.144,67.296 L33.792,39.136 L33.792,58.464 C33.792,61.3653478 34.3466611,62.816 35.456,62.816 C35.7546682,62.816 36.2133302,62.7413341 36.832,62.592 C37.4506698,62.4426659 37.9093318,62.368 38.208,62.368 C39.1040045,62.368 39.8613302,62.7733293 40.48,63.584 C41.0986698,64.3946707 41.408,65.3973274 41.408,66.592 C41.408,69.7066822 39.9146816,71.264 36.928,71.264 C36.0746624,71.264 34.6666765,71.1360013 32.704,70.88 C31.3813267,70.7093325 30.0586733,70.624 28.736,70.624 C27.6266611,70.624 26.1333427,70.7306656 24.256,70.944 C22.3786573,71.1573344 21.1840026,71.264 20.672,71.264 C17.5573178,71.264 16,69.7066822 16,66.592 C16,65.3973274 16.3306634,64.3946707 16.992,63.584 C17.6533366,62.7733293 18.4746618,62.368 19.456,62.368 C19.8400019,62.368 20.3626634,62.4426659 21.024,62.592 C21.6853366,62.7413341 22.186665,62.816 22.528,62.816 C23.6800058,62.816 24.256,61.3653478 24.256,58.464 L24.256,40.736 C24.256,37.877319 23.6800058,36.448 22.528,36.448 C22.186665,36.448 21.6853366,36.5226659 21.024,36.672 C20.3626634,36.8213341 19.8400019,36.896 19.456,36.896 C18.4746618,36.896 17.6533366,36.4906707 16.992,35.68 C16.3306634,34.8693293 16,33.8666726 16,32.672 C16,31.263993 16.4266624,30.1333376 17.28,29.28 C18.1333376,28.4266624 19.2426598,28 20.608,28 C21.5040045,28 22.8053248,28.1066656 24.512,28.32 C26.2186752,28.5333344 27.5626618,28.64 28.544,28.64 C29.3546707,28.64 30.7413235,28.5546675 32.704,28.384 C33.6000045,28.3413331 34.6239942,28.2560006 35.776,28.128 C36.2880026,28.0426662 36.8426637,28 37.44,28 C38.5920058,28 39.4879968,28.4479955 40.128,29.344 C40.3840013,29.685335 40.8533299,30.6666586 41.536,32.288 C41.536,32.288 40.8533299,30.6666586 41.536,32.288 L41.536,32.288 L41.536,32.288 Z M41.536,32.288" id="N" fill="#FFFFFF" sketch:type="MSShapeGroup"></path>
        </g>
    </g>
</svg>