<?xml version="1.0" encoding="UTF-8" standalone="no"?>
<svg width="29px" height="40px" viewBox="0 0 29 40" version="1.1" xmlns="http://www.w3.org/2000/svg" xmlns:xlink="http://www.w3.org/1999/xlink" xmlns:sketch="http://www.bohemiancoding.com/sketch/ns">
    <title>twitter</title>
    <description>Created with Sketch (http://www.bohemiancoding.com/sketch)</description>
    <defs></defs>
    <g id="Page-1" stroke="none" stroke-width="1" fill="none" fill-rule="evenodd" sketch:type="MSPage">
        <path d="M29,11.1844482 L29,0 L0,0 L0,40 L29,40 L29,11.1844482 C28.2029312,12.3540466 27.1939387,13.3817006 26.0318901,14.2022081 C26.0430749,14.4526303 26.048373,14.7047834 26.048373,14.9575136 C26.048373,22.6640531 20.0644703,31.55 9.12037432,31.55 C5.76079411,31.55 2.63374135,30.58524 0,28.9297997 C0.465643586,28.9840386 0.939528652,29.011735 1.41930049,29.011735 C4.20727524,29.011735 6.77214136,28.0792876 8.80837545,26.5150147 C6.20524532,26.468277 4.00830238,24.7816781 3.25067495,22.4649848 C3.61388872,22.5336489 3.98652132,22.5700005 4.37033879,22.5700005 C4.91309908,22.5700005 5.43878773,22.4984513 5.93798591,22.3657391 C3.215943,21.8291202 1.16499198,19.4726133 1.16499198,16.6475746 C1.16499198,16.6227632 1.16499198,16.5979517 1.16558066,16.5737173 C1.96794755,17.0105136 2.88569515,17.2730529 3.86054442,17.3036344 C2.26405213,16.2580931 1.21385218,14.4728256 1.21385218,12.4498301 C1.21385218,11.3800545 1.50701338,10.3783659 2.01916245,9.51746765 C4.9537178,13.045881 9.33818484,15.3671904 14.2830725,15.6106884 C14.1812314,15.1831243 14.1288391,14.73825 14.1288391,14.2818354 C14.1288391,11.0609682 16.792603,8.45 20.0780099,8.45 C21.7892942,8.45 23.3357489,9.15856772 24.4206808,10.2918145 C25.7764042,10.0298521 27.0491241,9.5445871 28.1988105,8.87583304 C27.7543593,10.2387296 26.8118872,11.3812085 25.5827294,12.1024704 C26.7865741,11.9622571 27.9339058,11.6489409 29,11.1844482 C28.2029312,12.3540466 29,11.1844482 29,11.1844482 Z M29,11.1844482" id="Rectangle-1" fill="#FFFFFF" sketch:type="MSShapeGroup"></path>
    </g>
</svg>